<svg width="353" height="77" viewBox="0 0 353 77" fill="none" xmlns="http://www.w3.org/2000/svg">
<g filter="url(#filter0_d_515_19)">
<path d="M34.3477 42.5195C32.4466 44.4206 30.1484 45.3711 27.4531 45.3711C25.3698 45.3711 23.7031 44.7721 22.4531 43.5742C21.1901 42.3633 20.5586 40.7943 20.5586 38.8672C20.5586 36.4714 21.6263 34.6745 23.7617 33.4766C25.6888 32.3828 28.4036 31.8359 31.9062 31.8359H34.3477C34.3607 31.3411 34.3672 30.8594 34.3672 30.3906V28.9258C34.3672 27.181 34.1133 25.9505 33.6055 25.2344C33.0326 24.4271 32.056 24.0234 30.6758 24.0234C27.5117 24.0234 25.8841 25.1562 25.793 27.4219C25.7799 27.7734 25.7865 28.0664 25.8125 28.3008C25.5521 28.5091 25.1094 28.6133 24.4844 28.6133C23.8724 28.6133 23.4232 28.5417 23.1367 28.3984C22.8633 28.2552 22.6224 28.0599 22.4141 27.8125C21.9714 27.3047 21.75 26.6602 21.75 25.8789C21.75 25.0846 21.9779 24.3945 22.4336 23.8086C22.9023 23.2096 23.5339 22.7214 24.3281 22.3438C25.8776 21.5755 27.707 21.1914 29.8164 21.1914C31.9258 21.1914 33.5078 21.3997 34.5625 21.8164C35.6302 22.2201 36.4766 22.7604 37.1016 23.4375C38.2083 24.6354 38.7617 26.2435 38.7617 28.2617L38.5664 37.6367C38.5664 39.3424 38.6445 40.4232 38.8008 40.8789C38.9701 41.3346 39.1654 41.6406 39.3867 41.7969C39.6211 41.9531 39.901 42.0312 40.2266 42.0312C40.5651 42.0312 40.8385 41.9792 41.0469 41.875L41.5938 41.6211C41.776 41.556 41.9323 41.6341 42.0625 41.8555C42.2057 42.0638 42.2773 42.2526 42.2773 42.4219C42.2773 42.5781 42.2057 42.7865 42.0625 43.0469C41.9323 43.3073 41.6784 43.5872 41.3008 43.8867C40.9362 44.1732 40.5195 44.4271 40.0508 44.6484C37.4596 45.8724 35.6953 45.5859 34.7578 43.7891C34.5625 43.4375 34.4258 43.0143 34.3477 42.5195ZM34.2891 39.9609C34.2891 38.0859 34.3021 36.224 34.3281 34.375C31.6198 34.4792 29.7773 34.6549 28.8008 34.9023C27.8372 35.1367 27.1406 35.3646 26.7109 35.5859C26.2812 35.8073 25.9427 36.0677 25.6953 36.3672C25.2917 36.862 25.0898 37.6107 25.0898 38.6133C25.0898 39.6029 25.4414 40.3971 26.1445 40.9961C26.8477 41.582 27.8568 41.875 29.1719 41.875C31.0339 41.875 32.7396 41.237 34.2891 39.9609ZM48.332 45C46.3398 45 45.3438 44.5443 45.3438 43.6328C45.3438 43.151 45.4414 42.7865 45.6367 42.5391C45.9492 42.6432 46.2422 42.6953 46.5156 42.6953C47.6484 42.6953 48.2344 42.0117 48.2734 40.6445V16.1914C48.2734 15.2799 48.1823 14.7005 48 14.4531C47.7005 14.0365 47.2188 13.8281 46.5547 13.8281C46.2552 13.8281 45.9622 13.8607 45.6758 13.9258C45.4023 13.9779 45.207 13.9779 45.0898 13.9258C44.9857 13.8607 44.901 13.776 44.8359 13.6719C44.5755 13.2422 44.901 12.6953 45.8125 12.0312C47.2448 10.9766 48.6576 10.4492 50.0508 10.4492C51.5352 10.4492 52.3685 11.25 52.5508 12.8516C52.6029 13.3333 52.6289 13.8411 52.6289 14.375V40.7227C52.668 41.7383 53.0391 42.3633 53.7422 42.5977C53.9505 42.6628 54.1914 42.7214 54.4648 42.7734C54.7513 42.8255 55.0117 42.8906 55.2461 42.9688C55.4805 43.0339 55.6628 43.112 55.793 43.2031C56.0143 43.3724 56.125 43.6458 56.125 44.0234C56.125 44.4792 56.0208 44.8372 55.8125 45.0977C55.5521 45.0326 55.1354 45 54.5625 45H48.332ZM62.3164 45C60.3242 45 59.3281 44.5443 59.3281 43.6328C59.3281 43.151 59.4258 42.7865 59.6211 42.5391C59.9336 42.6432 60.2266 42.6953 60.5 42.6953C61.6328 42.6953 62.2188 42.0117 62.2578 40.6445V16.1914C62.2578 15.2799 62.1667 14.7005 61.9844 14.4531C61.6849 14.0365 61.2031 13.8281 60.5391 13.8281C60.2396 13.8281 59.9466 13.8607 59.6602 13.9258C59.3867 13.9779 59.1914 13.9779 59.0742 13.9258C58.9701 13.8607 58.8854 13.776 58.8203 13.6719C58.5599 13.2422 58.8854 12.6953 59.7969 12.0312C61.2292 10.9766 62.6419 10.4492 64.0352 10.4492C65.5195 10.4492 66.3529 11.25 66.5352 12.8516C66.5872 13.3333 66.6133 13.8411 66.6133 14.375V40.7227C66.6523 41.7383 67.0234 42.3633 67.7266 42.5977C67.9349 42.6628 68.1758 42.7214 68.4492 42.7734C68.7357 42.8255 68.9961 42.8906 69.2305 42.9688C69.4648 43.0339 69.6471 43.112 69.7773 43.2031C69.9987 43.3724 70.1094 43.6458 70.1094 44.0234C70.1094 44.4792 70.0052 44.8372 69.7969 45.0977C69.5365 45.0326 69.1198 45 68.5469 45H62.3164ZM97.4531 45.0977C97.1927 45.0326 96.776 45 96.2031 45H89.9727C88.7227 45 87.9219 44.7786 87.5703 44.3359C87.4271 44.1667 87.3555 43.9714 87.3555 43.75C87.3555 43.2031 87.4596 42.7995 87.668 42.5391C87.9805 42.6432 88.332 42.6953 88.7227 42.6953C89.1263 42.6953 89.4258 42.5326 89.6211 42.207C89.8294 41.8815 89.9271 41.276 89.9141 40.3906V27.6172C89.9141 26.3932 89.6862 25.6315 89.2305 25.332C89.0482 25.2148 88.8073 25.1562 88.5078 25.1562C88.2083 25.1562 87.9674 25.2018 87.7852 25.293C87.6159 25.3841 87.4727 25.4492 87.3555 25.4883C87.2513 25.5273 87.1602 25.5273 87.082 25.4883C87.0039 25.4362 86.9258 25.3646 86.8477 25.2734C86.6523 25.0651 86.5547 24.8503 86.5547 24.6289C86.5547 24.3945 86.6328 24.1536 86.7891 23.9062C86.9583 23.6458 87.2253 23.3529 87.5898 23.0273C87.9544 22.6888 88.3711 22.3828 88.8398 22.1094C89.8945 21.4974 90.9492 21.1914 92.0039 21.1914C93.2148 21.1914 93.931 21.9922 94.1523 23.5938C94.2174 24.0625 94.2565 24.5443 94.2695 25.0391C96.2096 23.4115 98.319 22.2526 100.598 21.5625C101.418 21.3151 102.245 21.1914 103.078 21.1914C103.924 21.1914 104.725 21.3021 105.48 21.5234C106.249 21.7448 106.913 22.1029 107.473 22.5977C108.658 23.6393 109.25 25.2669 109.25 27.4805V40.7227C109.289 41.7383 109.667 42.3633 110.383 42.5977C110.578 42.6628 110.819 42.7214 111.105 42.7734C111.392 42.8255 111.646 42.8906 111.867 42.9688C112.102 43.0339 112.284 43.112 112.414 43.2031C112.635 43.3724 112.746 43.6458 112.746 44.0234C112.746 44.4792 112.642 44.8372 112.434 45.0977C112.173 45.0326 111.757 45 111.184 45H104.953C103.703 45 102.902 44.7786 102.551 44.3359C102.408 44.1667 102.336 43.9714 102.336 43.75C102.336 43.2031 102.44 42.7995 102.648 42.5391C102.961 42.6432 103.247 42.6953 103.508 42.6953C103.781 42.6953 104.009 42.6628 104.191 42.5977C104.374 42.5195 104.517 42.3958 104.621 42.2266C104.803 41.9141 104.895 41.3021 104.895 40.3906V28.8672C104.895 26.6536 104.237 25.4167 102.922 25.1562C102.518 25.0781 102.01 25.0391 101.398 25.0391C100.799 25.0391 100.135 25.1302 99.4062 25.3125C98.6771 25.4948 97.9935 25.7292 97.3555 26.0156C96.1315 26.5625 95.1029 27.2526 94.2695 28.0859V40.7227C94.3086 41.7383 94.6797 42.3633 95.3828 42.5977C95.5911 42.6628 95.832 42.7214 96.1055 42.7734C96.3919 42.8255 96.6523 42.8906 96.8867 42.9688C97.1211 43.0339 97.3034 43.112 97.4336 43.2031C97.6549 43.3724 97.7656 43.6458 97.7656 44.0234C97.7656 44.4792 97.6615 44.8372 97.4531 45.0977ZM115.695 34.4922C115.695 32.9167 115.858 31.5169 116.184 30.293C116.509 29.069 116.945 27.9753 117.492 27.0117C118.052 26.0352 118.703 25.1823 119.445 24.4531C120.201 23.724 121.008 23.1185 121.867 22.6367C123.56 21.6732 125.227 21.1914 126.867 21.1914C128.508 21.1914 129.823 21.4844 130.812 22.0703C131.802 22.6432 132.609 23.4115 133.234 24.375C134.393 26.2109 134.973 28.6523 134.973 31.6992C134.973 32.832 134.497 33.4115 133.547 33.4375L119.914 33.7305C119.992 36.556 120.721 38.6458 122.102 40C123.273 41.1458 124.79 41.7188 126.652 41.7188C129.426 41.7188 131.678 41.1393 133.41 39.9805C133.527 39.9805 133.671 40.0781 133.84 40.2734C134.165 40.6641 134.328 41.0026 134.328 41.2891C134.328 41.9141 133.547 42.7148 131.984 43.6914C130.188 44.8112 128.091 45.3711 125.695 45.3711C122.57 45.3711 120.116 44.375 118.332 42.3828C116.574 40.4297 115.695 37.7995 115.695 34.4922ZM120.031 31.2109C123.781 31.0286 127.212 30.7878 130.324 30.4883C130.467 26.3477 129.035 24.2773 126.027 24.2773C124.348 24.2773 122.974 24.9284 121.906 26.2305C120.93 27.4284 120.305 29.0885 120.031 31.2109ZM145.93 44.043L139.66 26.3281C139.191 25 138.781 24.3359 138.43 24.3359C138.273 24.3359 138.091 24.3555 137.883 24.3945C137.674 24.4336 137.505 24.362 137.375 24.1797C137.245 23.9974 137.18 23.7695 137.18 23.4961C137.18 23.2227 137.29 22.9427 137.512 22.6562C137.733 22.3698 138.013 22.1224 138.352 21.9141C139.107 21.4323 139.764 21.1914 140.324 21.1914C140.897 21.1914 141.32 21.2044 141.594 21.2305C141.867 21.2565 142.128 21.3477 142.375 21.5039C142.87 21.8294 143.286 22.5651 143.625 23.7109L148.645 40.7031C149.882 37.0573 150.682 34.6484 151.047 33.4766C152.336 29.1276 153.195 25.9115 153.625 23.8281C153.716 23.3594 154.146 22.9622 154.914 22.6367C155.513 22.3893 156.021 22.2656 156.438 22.2656C156.854 22.2656 157.128 22.2982 157.258 22.3633C157.401 22.4154 157.505 22.5195 157.57 22.6758C157.727 22.9883 157.844 23.3659 157.922 23.8086L163.117 40.8398C164.094 38.457 164.758 36.7839 165.109 35.8203L166.125 32.9688C167.206 29.8568 167.746 27.4284 167.746 25.6836C167.746 24.4466 167.147 23.7565 165.949 23.6133C165.819 23.4049 165.754 23.1901 165.754 22.9688C165.754 22.7344 165.865 22.5065 166.086 22.2852C166.307 22.0508 166.594 21.849 166.945 21.6797C167.648 21.3542 168.358 21.1914 169.074 21.1914C169.803 21.1914 170.363 21.2305 170.754 21.3086C171.145 21.3867 171.457 21.5234 171.691 21.7188C172.134 22.1094 172.355 22.6953 172.355 23.4766C172.355 24.2448 172.271 25.026 172.102 25.8203C171.932 26.6016 171.704 27.4609 171.418 28.3984C171.132 29.3359 170.799 30.319 170.422 31.3477C169.003 35.1237 167.967 37.7148 167.316 39.1211L165.891 42.0898C165.604 42.6628 165.383 43.0794 165.227 43.3398L164.738 44.1016C164.191 44.9479 163.547 45.3711 162.805 45.3711C161.997 45.3711 161.333 45.1562 160.812 44.7266C160.604 44.5443 160.454 44.3164 160.363 44.043L155.52 30.0586C154.217 34.1341 153.391 36.6862 153.039 37.7148C151.971 40.7096 151.327 42.4349 151.105 42.8906C150.884 43.3333 150.689 43.6979 150.52 43.9844C150.35 44.2578 150.161 44.4922 149.953 44.6875C149.484 45.1432 148.97 45.3711 148.41 45.3711C147.629 45.3711 146.958 45.1432 146.398 44.6875C146.19 44.5182 146.034 44.3034 145.93 44.043ZM194.465 17.5586C194.022 17.5586 193.612 17.4935 193.234 17.3633C192.87 17.2201 192.551 17.0182 192.277 16.7578C191.704 16.2109 191.418 15.4753 191.418 14.5508C191.418 13.6654 191.757 12.9167 192.434 12.3047C193.085 11.6927 193.866 11.3867 194.777 11.3867C195.689 11.3867 196.418 11.6602 196.965 12.207C197.512 12.7539 197.785 13.4961 197.785 14.4336C197.785 15.319 197.46 16.0677 196.809 16.6797C196.171 17.2656 195.389 17.5586 194.465 17.5586ZM193.273 45C191.268 45 190.266 44.5443 190.266 43.6328C190.266 43.1641 190.37 42.7995 190.578 42.5391C190.891 42.6432 191.177 42.6953 191.438 42.6953C192.648 42.6953 193.241 41.9271 193.215 40.3906V27.3047C193.215 26.3932 193.085 25.7617 192.824 25.4102C192.577 25.0456 192.128 24.8633 191.477 24.8633C190.995 24.8633 190.559 24.9219 190.168 25.0391C189.934 25.0651 189.764 24.8828 189.66 24.4922C189.569 24.1406 189.621 23.8346 189.816 23.5742C190.012 23.3008 190.311 23.0208 190.715 22.7344C191.132 22.4349 191.587 22.1745 192.082 21.9531C193.15 21.4453 194.042 21.1914 194.758 21.1914C195.474 21.1914 196.001 21.2956 196.34 21.5039C196.691 21.7122 196.958 21.9922 197.141 22.3438C197.427 22.9167 197.57 23.8411 197.57 25.1172V40.7227C197.609 41.7513 197.98 42.3763 198.684 42.5977C198.879 42.6628 199.12 42.7214 199.406 42.7734C199.693 42.8255 199.947 42.8906 200.168 42.9688C200.402 43.0339 200.585 43.112 200.715 43.2031C200.936 43.3724 201.047 43.6458 201.047 44.0234C201.047 44.4922 200.949 44.8503 200.754 45.0977C200.48 45.0326 200.064 45 199.504 45H193.273ZM214.445 45.0977C214.185 45.0326 213.768 45 213.195 45H206.965C205.715 45 204.914 44.7786 204.562 44.3359C204.419 44.1667 204.348 43.9714 204.348 43.75C204.348 43.2031 204.452 42.7995 204.66 42.5391C204.973 42.6432 205.324 42.6953 205.715 42.6953C206.118 42.6953 206.418 42.5326 206.613 42.207C206.822 41.8815 206.919 41.276 206.906 40.3906V27.6172C206.906 26.3932 206.678 25.6315 206.223 25.332C206.04 25.2148 205.799 25.1562 205.5 25.1562C205.201 25.1562 204.96 25.2018 204.777 25.293C204.608 25.3841 204.465 25.4492 204.348 25.4883C204.243 25.5273 204.152 25.5273 204.074 25.4883C203.996 25.4362 203.918 25.3646 203.84 25.2734C203.645 25.0651 203.547 24.8503 203.547 24.6289C203.547 24.3945 203.625 24.1536 203.781 23.9062C203.951 23.6458 204.217 23.3529 204.582 23.0273C204.947 22.6888 205.363 22.3828 205.832 22.1094C206.887 21.4974 207.941 21.1914 208.996 21.1914C210.207 21.1914 210.923 21.9922 211.145 23.5938C211.21 24.0625 211.249 24.5443 211.262 25.0391C213.202 23.4115 215.311 22.2526 217.59 21.5625C218.41 21.3151 219.237 21.1914 220.07 21.1914C220.917 21.1914 221.717 21.3021 222.473 21.5234C223.241 21.7448 223.905 22.1029 224.465 22.5977C225.65 23.6393 226.242 25.2669 226.242 27.4805V40.7227C226.281 41.7383 226.659 42.3633 227.375 42.5977C227.57 42.6628 227.811 42.7214 228.098 42.7734C228.384 42.8255 228.638 42.8906 228.859 42.9688C229.094 43.0339 229.276 43.112 229.406 43.2031C229.628 43.3724 229.738 43.6458 229.738 44.0234C229.738 44.4792 229.634 44.8372 229.426 45.0977C229.165 45.0326 228.749 45 228.176 45H221.945C220.695 45 219.895 44.7786 219.543 44.3359C219.4 44.1667 219.328 43.9714 219.328 43.75C219.328 43.2031 219.432 42.7995 219.641 42.5391C219.953 42.6432 220.24 42.6953 220.5 42.6953C220.773 42.6953 221.001 42.6628 221.184 42.5977C221.366 42.5195 221.509 42.3958 221.613 42.2266C221.796 41.9141 221.887 41.3021 221.887 40.3906V28.8672C221.887 26.6536 221.229 25.4167 219.914 25.1562C219.51 25.0781 219.003 25.0391 218.391 25.0391C217.792 25.0391 217.128 25.1302 216.398 25.3125C215.669 25.4948 214.986 25.7292 214.348 26.0156C213.124 26.5625 212.095 27.2526 211.262 28.0859V40.7227C211.301 41.7383 211.672 42.3633 212.375 42.5977C212.583 42.6628 212.824 42.7214 213.098 42.7734C213.384 42.8255 213.645 42.8906 213.879 42.9688C214.113 43.0339 214.296 43.112 214.426 43.2031C214.647 43.3724 214.758 43.6458 214.758 44.0234C214.758 44.4792 214.654 44.8372 214.445 45.0977ZM243.195 45.0977C242.935 45.0326 242.518 45 241.945 45H235.715C234.465 45 233.664 44.7786 233.312 44.3359C233.169 44.1667 233.098 43.9714 233.098 43.75C233.098 43.2031 233.202 42.7995 233.41 42.5391C233.723 42.6432 234.074 42.6953 234.465 42.6953C234.868 42.6953 235.168 42.5326 235.363 42.207C235.572 41.8815 235.669 41.276 235.656 40.3906V27.6172C235.656 26.3932 235.428 25.6315 234.973 25.332C234.79 25.2148 234.549 25.1562 234.25 25.1562C233.951 25.1562 233.71 25.2018 233.527 25.293C233.358 25.3841 233.215 25.4492 233.098 25.4883C232.993 25.5273 232.902 25.5273 232.824 25.4883C232.746 25.4362 232.668 25.3646 232.59 25.2734C232.395 25.0651 232.297 24.8503 232.297 24.6289C232.297 24.3945 232.375 24.1536 232.531 23.9062C232.701 23.6458 232.967 23.3529 233.332 23.0273C233.697 22.6888 234.113 22.3828 234.582 22.1094C235.637 21.4974 236.691 21.1914 237.746 21.1914C238.957 21.1914 239.673 21.9922 239.895 23.5938C239.96 24.0625 239.999 24.5443 240.012 25.0391C241.952 23.4115 244.061 22.2526 246.34 21.5625C247.16 21.3151 247.987 21.1914 248.82 21.1914C249.667 21.1914 250.467 21.3021 251.223 21.5234C251.991 21.7448 252.655 22.1029 253.215 22.5977C254.4 23.6393 254.992 25.2669 254.992 27.4805V40.7227C255.031 41.7383 255.409 42.3633 256.125 42.5977C256.32 42.6628 256.561 42.7214 256.848 42.7734C257.134 42.8255 257.388 42.8906 257.609 42.9688C257.844 43.0339 258.026 43.112 258.156 43.2031C258.378 43.3724 258.488 43.6458 258.488 44.0234C258.488 44.4792 258.384 44.8372 258.176 45.0977C257.915 45.0326 257.499 45 256.926 45H250.695C249.445 45 248.645 44.7786 248.293 44.3359C248.15 44.1667 248.078 43.9714 248.078 43.75C248.078 43.2031 248.182 42.7995 248.391 42.5391C248.703 42.6432 248.99 42.6953 249.25 42.6953C249.523 42.6953 249.751 42.6628 249.934 42.5977C250.116 42.5195 250.259 42.3958 250.363 42.2266C250.546 41.9141 250.637 41.3021 250.637 40.3906V28.8672C250.637 26.6536 249.979 25.4167 248.664 25.1562C248.26 25.0781 247.753 25.0391 247.141 25.0391C246.542 25.0391 245.878 25.1302 245.148 25.3125C244.419 25.4948 243.736 25.7292 243.098 26.0156C241.874 26.5625 240.845 27.2526 240.012 28.0859V40.7227C240.051 41.7383 240.422 42.3633 241.125 42.5977C241.333 42.6628 241.574 42.7214 241.848 42.7734C242.134 42.8255 242.395 42.8906 242.629 42.9688C242.863 43.0339 243.046 43.112 243.176 43.2031C243.397 43.3724 243.508 43.6458 243.508 44.0234C243.508 44.4792 243.404 44.8372 243.195 45.0977ZM261.262 34.2188C261.262 32.6302 261.418 31.2044 261.73 29.9414C262.043 28.6784 262.473 27.5651 263.02 26.6016C263.566 25.638 264.211 24.8177 264.953 24.1406C265.695 23.4505 266.49 22.8906 267.336 22.4609C268.99 21.6146 270.806 21.1914 272.785 21.1914C275.324 21.1914 277.479 22.1159 279.25 23.9648C281.216 25.9961 282.199 28.6784 282.199 32.0117C282.199 36.3867 281.008 39.7917 278.625 42.2266C276.555 44.3229 274.074 45.3711 271.184 45.3711C268.163 45.3711 265.741 44.3099 263.918 42.1875C262.147 40.1432 261.262 37.487 261.262 34.2188ZM272.336 42.1875C273.208 42.1875 273.99 41.9857 274.68 41.582C275.37 41.1654 275.956 40.599 276.438 39.8828C277.401 38.3984 277.883 36.4714 277.883 34.1016C277.883 31.4974 277.375 29.2839 276.359 27.4609C275.214 25.3646 273.566 24.3164 271.418 24.3164C269.686 24.3164 268.299 24.9805 267.258 26.3086C266.151 27.7148 265.598 29.681 265.598 32.207C265.598 35.3711 266.294 37.8711 267.688 39.707C268.938 41.3607 270.487 42.1875 272.336 42.1875ZM293.449 44.043C289.1 32.6888 286.861 26.8294 286.73 26.4648C286.6 26.0872 286.464 25.7422 286.32 25.4297C285.995 24.7005 285.702 24.3359 285.441 24.3359C285.272 24.3359 285.083 24.3555 284.875 24.3945C284.667 24.4336 284.497 24.362 284.367 24.1797C284.237 23.9974 284.172 23.7695 284.172 23.4961C284.172 23.2227 284.296 22.9427 284.543 22.6562C284.803 22.3698 285.122 22.1224 285.5 21.9141C286.32 21.4323 286.971 21.1914 287.453 21.1914C287.935 21.1914 288.319 21.2044 288.605 21.2305C288.892 21.2565 289.159 21.3542 289.406 21.5234C289.927 21.862 290.363 22.5911 290.715 23.7109L296.438 40.7812C297.349 38.9453 298.026 37.5391 298.469 36.5625L299.68 33.7109C301.138 30.1172 301.867 27.5911 301.867 26.1328V25.8789C301.867 25.2279 301.717 24.7135 301.418 24.3359C301.132 23.9583 300.617 23.7305 299.875 23.6523C299.745 23.444 299.68 23.2292 299.68 23.0078C299.68 22.7734 299.803 22.5456 300.051 22.3242C300.311 22.0898 300.637 21.888 301.027 21.7188C301.835 21.3672 302.714 21.1914 303.664 21.1914C304.628 21.1914 305.37 21.3411 305.891 21.6406C306.424 21.9271 306.691 22.5 306.691 23.3594C306.691 25.1823 305.454 28.8086 302.98 34.2383L301.203 37.9688C299.979 40.4427 299.055 42.1224 298.43 43.0078C297.31 44.5833 296.327 45.3711 295.48 45.3711C294.868 45.3711 294.322 45.1302 293.84 44.6484C293.671 44.4792 293.54 44.2773 293.449 44.043ZM324.113 42.5195C322.212 44.4206 319.914 45.3711 317.219 45.3711C315.135 45.3711 313.469 44.7721 312.219 43.5742C310.956 42.3633 310.324 40.7943 310.324 38.8672C310.324 36.4714 311.392 34.6745 313.527 33.4766C315.454 32.3828 318.169 31.8359 321.672 31.8359H324.113C324.126 31.3411 324.133 30.8594 324.133 30.3906V28.9258C324.133 27.181 323.879 25.9505 323.371 25.2344C322.798 24.4271 321.822 24.0234 320.441 24.0234C317.277 24.0234 315.65 25.1562 315.559 27.4219C315.546 27.7734 315.552 28.0664 315.578 28.3008C315.318 28.5091 314.875 28.6133 314.25 28.6133C313.638 28.6133 313.189 28.5417 312.902 28.3984C312.629 28.2552 312.388 28.0599 312.18 27.8125C311.737 27.3047 311.516 26.6602 311.516 25.8789C311.516 25.0846 311.743 24.3945 312.199 23.8086C312.668 23.2096 313.299 22.7214 314.094 22.3438C315.643 21.5755 317.473 21.1914 319.582 21.1914C321.691 21.1914 323.273 21.3997 324.328 21.8164C325.396 22.2201 326.242 22.7604 326.867 23.4375C327.974 24.6354 328.527 26.2435 328.527 28.2617L328.332 37.6367C328.332 39.3424 328.41 40.4232 328.566 40.8789C328.736 41.3346 328.931 41.6406 329.152 41.7969C329.387 41.9531 329.667 42.0312 329.992 42.0312C330.331 42.0312 330.604 41.9792 330.812 41.875L331.359 41.6211C331.542 41.556 331.698 41.6341 331.828 41.8555C331.971 42.0638 332.043 42.2526 332.043 42.4219C332.043 42.5781 331.971 42.7865 331.828 43.0469C331.698 43.3073 331.444 43.5872 331.066 43.8867C330.702 44.1732 330.285 44.4271 329.816 44.6484C327.225 45.8724 325.461 45.5859 324.523 43.7891C324.328 43.4375 324.191 43.0143 324.113 42.5195ZM324.055 39.9609C324.055 38.0859 324.068 36.224 324.094 34.375C321.385 34.4792 319.543 34.6549 318.566 34.9023C317.603 35.1367 316.906 35.3646 316.477 35.5859C316.047 35.8073 315.708 36.0677 315.461 36.3672C315.057 36.862 314.855 37.6107 314.855 38.6133C314.855 39.6029 315.207 40.3971 315.91 40.9961C316.613 41.582 317.622 41.875 318.938 41.875C320.799 41.875 322.505 41.237 324.055 39.9609Z" fill="white"/>
</g>
<defs>
<filter id="filter0_d_515_19" x="0.558594" y="0.449219" width="351.484" height="76.0352" filterUnits="userSpaceOnUse" color-interpolation-filters="sRGB">
<feFlood flood-opacity="0" result="BackgroundImageFix"/>
<feColorMatrix in="SourceAlpha" type="matrix" values="0 0 0 0 0 0 0 0 0 0 0 0 0 0 0 0 0 0 127 0" result="hardAlpha"/>
<feOffset dy="10"/>
<feGaussianBlur stdDeviation="10"/>
<feComposite in2="hardAlpha" operator="out"/>
<feColorMatrix type="matrix" values="0 0 0 0 0.0666841 0 0 0 0 0.205097 0 0 0 0 0.695833 0 0 0 0.3 0"/>
<feBlend mode="normal" in2="BackgroundImageFix" result="effect1_dropShadow_515_19"/>
<feBlend mode="normal" in="SourceGraphic" in2="effect1_dropShadow_515_19" result="shape"/>
</filter>
</defs>
</svg>
